<svg xmlns="http://www.w3.org/2000/svg" version="1.0" width="358.000000pt" height="260.000000pt" viewBox="0 0 358.000000 260.000000" preserveAspectRatio="xMidYMid meet">

<g transform="translate(0.000000,260.000000) scale(0.100000,-0.100000)" fill="#db191f" stroke="none">
<path d="M664 2260 c-113 -23 -214 -105 -267 -218 l-32 -67 -3 -695 c-3 -736 -2 -772 43 -860 29 -57 106 -130 176 -167 l54 -28 246 -3 c166 -2 260 0 290 8 38 10 78 46 314 280 149 148 283 274 298 279 40 16 112 13 153 -4 23 -9 126 -105 278 -258 142 -143 262 -255 291 -273 l50 -29 260 0 260 0 66 32 c72 36 143 104 181 174 l23 44 3 730 c4 835 6 802 -78 917 -42 57 -59 71 -126 105 l-78 38 -1180 2 c-650 0 -1199 -3 -1222 -7z" fill="#db191f"/>
</g>
</svg>